<svg width="103" height="17" viewBox="0 0 103 17" fill="none" xmlns="http://www.w3.org/2000/svg">
<path d="M16.544 7.728V8.916C16.544 11.116 15.84 12.898 14.432 14.262C13.024 15.626 11.2053 16.308 8.976 16.308C6.6 16.308 4.62733 15.538 3.058 13.998C1.50333 12.4433 0.726 10.5513 0.726 8.322C0.726 6.078 1.496 4.17867 3.036 2.624C4.59067 1.06933 6.512 0.291999 8.8 0.291999C10.2373 0.291999 11.55 0.621999 12.738 1.282C13.926 1.92733 14.85 2.79267 15.51 3.878L12.914 5.374C12.5473 4.74333 11.99 4.23 11.242 3.834C10.5087 3.438 9.68733 3.24 8.778 3.24C7.31133 3.24 6.10133 3.724 5.148 4.692C4.20933 5.64533 3.74 6.85533 3.74 8.322C3.74 9.774 4.21667 10.9767 5.17 11.93C6.138 12.8687 7.414 13.338 8.998 13.338C10.1713 13.338 11.1393 13.0813 11.902 12.568C12.6793 12.04 13.2073 11.3213 13.486 10.412H8.822V7.728H16.544ZM20.9694 11.666C21.3508 13.0447 22.3848 13.734 24.0714 13.734C25.1568 13.734 25.9781 13.3673 26.5354 12.634L28.8234 13.954C27.7381 15.5233 26.1394 16.308 24.0274 16.308C22.2088 16.308 20.7494 15.758 19.6494 14.658C18.5494 13.558 17.9994 12.172 17.9994 10.5C17.9994 8.84267 18.5421 7.464 19.6274 6.364C20.7128 5.24933 22.1061 4.692 23.8074 4.692C25.4208 4.692 26.7481 5.24933 27.7894 6.364C28.8454 7.47867 29.3734 8.85733 29.3734 10.5C29.3734 10.8667 29.3368 11.2553 29.2634 11.666H20.9694ZM20.9254 9.466H26.5354C26.3741 8.718 26.0368 8.16067 25.5234 7.794C25.0248 7.42733 24.4528 7.244 23.8074 7.244C23.0448 7.244 22.4141 7.442 21.9154 7.838C21.4168 8.21933 21.0868 8.762 20.9254 9.466ZM37.3244 7.728H34.8384V12.304C34.8384 12.6853 34.9337 12.964 35.1244 13.14C35.315 13.316 35.5937 13.4187 35.9604 13.448C36.327 13.4627 36.7817 13.4553 37.3244 13.426V16C35.3737 16.22 33.995 16.0367 33.1884 15.45C32.3964 14.8633 32.0004 13.8147 32.0004 12.304V7.728H30.0864V5H32.0004V2.778L34.8384 1.92V5H37.3244V7.728ZM44.8212 16.242C43.3986 16.242 42.1886 15.9193 41.1912 15.274C40.2086 14.614 39.5412 13.7267 39.1892 12.612L40.2012 12.018C40.4799 12.9713 41.0079 13.7267 41.7852 14.284C42.5772 14.8413 43.5892 15.12 44.8212 15.12C46.0679 15.12 47.0212 14.834 47.6812 14.262C48.3559 13.69 48.6932 12.9493 48.6932 12.04C48.6932 11.1893 48.3706 10.5367 47.7252 10.082C47.0799 9.62733 46.0752 9.18 44.7112 8.74C44.2126 8.57867 43.8459 8.46133 43.6112 8.388C43.3912 8.3 43.0686 8.17533 42.6432 8.014C42.2179 7.838 41.9026 7.684 41.6972 7.552C41.4919 7.42 41.2426 7.244 40.9492 7.024C40.6706 6.804 40.4652 6.584 40.3332 6.364C40.2012 6.12933 40.0839 5.858 39.9812 5.55C39.8786 5.22733 39.8272 4.87533 39.8272 4.494C39.8272 3.24733 40.2672 2.25 41.1472 1.502C42.0419 0.739333 43.1566 0.357999 44.4912 0.357999C45.6939 0.357999 46.7206 0.658666 47.5712 1.26C48.4219 1.86133 49.0452 2.63867 49.4412 3.592L48.4512 4.142C47.7179 2.36733 46.3979 1.48 44.4912 1.48C43.4352 1.48 42.5919 1.75867 41.9612 2.316C41.3306 2.87333 41.0152 3.58467 41.0152 4.45C41.0152 5.286 41.3086 5.90933 41.8952 6.32C42.4819 6.73067 43.4426 7.156 44.7772 7.596C45.6279 7.87467 46.2879 8.11667 46.7572 8.322C47.2412 8.51267 47.7546 8.784 48.2972 9.136C48.8546 9.47333 49.2579 9.884 49.5072 10.368C49.7566 10.8373 49.8812 11.3873 49.8812 12.018C49.8812 13.294 49.4192 14.3207 48.4952 15.098C47.5712 15.8607 46.3466 16.242 44.8212 16.242ZM57.8358 6.078H54.5578V13.228C54.5578 13.8587 54.6751 14.3133 54.9098 14.592C55.1444 14.8707 55.5038 15.032 55.9878 15.076C56.4718 15.1053 57.0878 15.0833 57.8358 15.01V16C56.3544 16.22 55.2471 16.1173 54.5138 15.692C53.7951 15.2667 53.4358 14.4453 53.4358 13.228V6.078H51.0158V5H53.4358V2.25L54.5578 1.92V5H57.8358V6.078ZM68.3953 5H69.4953V16H68.3953V13.91C67.6033 15.4647 66.2906 16.242 64.4573 16.242C63.1519 16.242 62.1106 15.846 61.3333 15.054C60.5706 14.2473 60.1893 13.1767 60.1893 11.842V5H61.3113V11.842C61.3113 12.8687 61.5899 13.6827 62.1473 14.284C62.7193 14.8853 63.5186 15.186 64.5453 15.186C65.6746 15.186 66.5986 14.812 67.3173 14.064C68.0359 13.316 68.3953 12.2307 68.3953 10.808V5ZM82.5952 0.599999H83.6952V16H82.5952V13.448C82.1406 14.3133 81.4952 14.9953 80.6592 15.494C79.8379 15.9927 78.9066 16.242 77.8652 16.242C76.2812 16.242 74.9319 15.692 73.8172 14.592C72.7172 13.4773 72.1672 12.1133 72.1672 10.5C72.1672 8.88667 72.7172 7.53 73.8172 6.43C74.9319 5.31533 76.2812 4.758 77.8652 4.758C78.9066 4.758 79.8379 5.00733 80.6592 5.506C81.4952 6.00467 82.1406 6.68667 82.5952 7.552V0.599999ZM74.6092 13.822C75.5186 14.7313 76.6259 15.186 77.9312 15.186C79.2366 15.186 80.3366 14.7313 81.2312 13.822C82.1406 12.9127 82.5952 11.8053 82.5952 10.5C82.5952 9.19467 82.1406 8.08733 81.2312 7.178C80.3366 6.26867 79.2366 5.814 77.9312 5.814C76.6259 5.814 75.5186 6.26867 74.6092 7.178C73.7146 8.08733 73.2672 9.19467 73.2672 10.5C73.2672 11.8053 73.7146 12.9127 74.6092 13.822ZM88.2389 2.096C88.0629 2.25733 87.8576 2.338 87.6229 2.338C87.3882 2.338 87.1829 2.25733 87.0069 2.096C86.8309 1.92 86.7429 1.70733 86.7429 1.458C86.7429 1.22333 86.8309 1.02533 87.0069 0.863999C87.1829 0.687999 87.3882 0.599999 87.6229 0.599999C87.8576 0.599999 88.0629 0.687999 88.2389 0.863999C88.4149 1.02533 88.5029 1.22333 88.5029 1.458C88.5029 1.70733 88.4149 1.92 88.2389 2.096ZM87.0729 16V5H88.1729V16H87.0729ZM96.6011 16.242C94.9878 16.242 93.6165 15.692 92.4871 14.592C91.3725 13.4773 90.8151 12.1133 90.8151 10.5C90.8151 8.88667 91.3725 7.53 92.4871 6.43C93.6165 5.31533 94.9878 4.758 96.6011 4.758C98.1998 4.758 99.5565 5.31533 100.671 6.43C101.8 7.53 102.365 8.88667 102.365 10.5C102.365 12.1133 101.8 13.4773 100.671 14.592C99.5565 15.692 98.1998 16.242 96.6011 16.242ZM93.2791 13.822C94.1885 14.7313 95.2958 15.186 96.6011 15.186C97.9065 15.186 99.0065 14.7313 99.9011 13.822C100.796 12.9127 101.243 11.8053 101.243 10.5C101.243 9.19467 100.796 8.08733 99.9011 7.178C99.0065 6.26867 97.9065 5.814 96.6011 5.814C95.2958 5.814 94.1885 6.26867 93.2791 7.178C92.3845 8.08733 91.9371 9.19467 91.9371 10.5C91.9371 11.8053 92.3845 12.9127 93.2791 13.822Z" fill="white"/>
</svg>
