<svg width="577" height="306" viewBox="0 0 577 306" fill="none" xmlns="http://www.w3.org/2000/svg">
<path d="M339.296 0.644958H340.972C396.201 0.644958 440.972 45.4165 440.972 100.645V305.673H369.296C352.728 305.673 339.296 292.242 339.296 275.673V0.644958Z" fill="white"/>
<path d="M474.866 215.617C474.866 212.943 477.034 210.775 479.708 210.775H486.164C536.078 210.775 576.542 251.239 576.542 301.154C576.542 303.65 574.519 305.673 572.023 305.673L474.866 305.673V215.617Z" fill="#0BC594"/>
<path d="M102.048 153.159C102.048 181.236 124.809 203.997 152.886 203.997C171.604 203.997 186.778 219.171 186.778 237.889V305.673H152.886C128.537 305.673 105.521 299.967 85.1016 289.82C34.8832 264.863 0.371582 213.042 0.371582 153.159C0.371582 93.2766 34.8832 41.4548 85.1016 16.4984C105.521 6.35085 128.537 0.64502 152.886 0.64502C164.534 0.64502 175.878 1.9509 186.778 4.42426C225.015 13.1009 257.796 36.1447 279.145 67.5803C295.717 91.9818 305.4 121.44 305.4 153.159V305.673C279.423 305.673 255.721 295.931 237.748 279.902C216.87 261.281 203.724 234.174 203.724 203.997V153.159C203.724 141.997 200.126 131.675 194.028 123.289C191.9 120.364 189.468 117.674 186.778 115.266C177.784 107.216 165.906 102.321 152.886 102.321C124.809 102.321 102.048 125.082 102.048 153.159Z" fill="white"/>
</svg>
