<svg width="515" height="301" viewBox="0 0 515 301" fill="none" xmlns="http://www.w3.org/2000/svg">
<path d="M205.03 293L203.113 293.569L203.538 295H205.03V293ZM192.58 251.085L194.497 250.516L194.072 249.085H192.58V251.085ZM95.885 251.085V249.085H94.3927L93.9678 250.516L95.885 251.085ZM83.435 293V295H84.9273L85.3522 293.569L83.435 293ZM2.925 293L1.02574 292.373L0.158914 295H2.925V293ZM98.79 2.49998V0.499981H97.3439L96.8907 1.87323L98.79 2.49998ZM189.26 2.49998L191.159 1.87323L190.706 0.499981H189.26V2.49998ZM285.125 293V295H287.891L287.024 292.373L285.125 293ZM114.975 187.175L113.056 186.611L112.302 189.175H114.975V187.175ZM173.49 187.175V189.175H176.174L175.407 186.603L173.49 187.175ZM144.025 88.405L145.942 87.8333L144.011 81.3632L142.106 87.8407L144.025 88.405ZM206.947 292.431L194.497 250.516L190.663 251.654L203.113 293.569L206.947 292.431ZM192.58 249.085H95.885V253.085H192.58V249.085ZM93.9678 250.516L81.5178 292.431L85.3522 293.569L97.8022 251.654L93.9678 250.516ZM83.435 291H2.925V295H83.435V291ZM4.82426 293.627L100.689 3.12674L96.8907 1.87323L1.02574 292.373L4.82426 293.627ZM98.79 4.49998H189.26V0.499981H98.79V4.49998ZM187.361 3.12674L283.226 293.627L287.024 292.373L191.159 1.87323L187.361 3.12674ZM285.125 291H205.03V295H285.125V291ZM114.975 189.175H173.49V185.175H114.975V189.175ZM175.407 186.603L145.942 87.8333L142.108 88.9767L171.573 187.747L175.407 186.603ZM142.106 87.8407L113.056 186.611L116.894 187.739L145.944 88.9693L142.106 87.8407ZM443.759 85.5V83.5H441.759V85.5H443.759ZM512.649 85.5H514.649V83.5H512.649V85.5ZM512.649 293V295H514.649V293H512.649ZM443.759 293H441.759V295H443.759V293ZM443.759 273.91H445.759V268.469L442.235 272.615L443.759 273.91ZM315.109 267.685L313.608 269.008L313.618 269.018L313.627 269.028L315.109 267.685ZM315.109 111.23L313.618 109.896L313.617 109.898L315.109 111.23ZM443.759 104.59L442.235 105.885L445.759 110.031V104.59H443.759ZM368.644 222.035L367.206 223.425L368.644 222.035ZM431.724 222.035L430.286 220.645L431.724 222.035ZM431.724 156.465L430.286 157.855L431.724 156.465ZM443.759 87.5H512.649V83.5H443.759V87.5ZM510.649 85.5V293H514.649V85.5H510.649ZM512.649 291H443.759V295H512.649V291ZM445.759 293V273.91H441.759V293H445.759ZM442.235 272.615C428.566 288.696 409.52 296.81 384.829 296.81V300.81C410.491 300.81 430.731 292.324 445.283 275.205L442.235 272.615ZM384.829 296.81C357.734 296.81 335.03 286.679 316.59 266.342L313.627 269.028C332.814 290.191 356.59 300.81 384.829 300.81V296.81ZM316.609 266.362C298.432 245.744 289.304 220.087 289.304 189.25H285.304C285.304 220.94 294.712 247.573 313.608 269.008L316.609 266.362ZM289.304 189.25C289.304 158.413 298.432 132.9 316.6 112.562L313.617 109.898C294.712 131.06 285.304 157.56 285.304 189.25H289.304ZM316.599 112.564C335.042 91.9514 357.744 81.69 384.829 81.69V77.69C356.58 77.69 332.802 88.4553 313.618 109.896L316.599 112.564ZM384.829 81.69C409.52 81.69 428.566 89.8044 442.235 105.885L445.283 103.295C430.731 86.1756 410.491 77.69 384.829 77.69V81.69ZM445.759 104.59V85.5H441.759V104.59H445.759ZM367.206 223.425C375.655 232.166 386.713 236.485 400.184 236.485V232.485C387.647 232.485 377.679 228.504 370.082 220.645L367.206 223.425ZM400.184 236.485C413.654 236.485 424.712 232.166 433.162 223.425L430.286 220.645C422.689 228.504 412.72 232.485 400.184 232.485V236.485ZM433.162 223.425C441.608 214.688 445.759 203.228 445.759 189.25H441.759C441.759 202.385 437.886 212.782 430.286 220.645L433.162 223.425ZM445.759 189.25C445.759 175.272 441.608 163.812 433.162 155.075L430.286 157.855C437.886 165.718 441.759 176.115 441.759 189.25H445.759ZM433.162 155.075C424.712 146.334 413.654 142.015 400.184 142.015V146.015C412.72 146.015 422.689 149.996 430.286 157.855L433.162 155.075ZM400.184 142.015C386.713 142.015 375.655 146.334 367.206 155.075L370.082 157.855C377.679 149.996 387.647 146.015 400.184 146.015V142.015ZM367.206 155.075C358.76 163.812 354.609 175.272 354.609 189.25H358.609C358.609 176.115 362.481 165.718 370.082 157.855L367.206 155.075ZM354.609 189.25C354.609 203.228 358.76 214.688 367.206 223.425L370.082 220.645C362.481 212.782 358.609 202.385 358.609 189.25H354.609Z" fill="#EEEEEE"/>
</svg>
