<svg width="22" height="20" viewBox="0 0 22 20" fill="none" xmlns="http://www.w3.org/2000/svg">
<path d="M4.78434 -6.86552e-05C4.68655 0.0103031 4.59469 0.0547534 4.52357 0.124393L0.124457 4.5235C0.0385197 4.60648 -0.010376 4.72205 -0.010376 4.84058C-0.010376 4.95912 0.0385197 5.07321 0.124457 5.15618L4.52357 9.55677C4.69841 9.73161 4.98141 9.73161 5.15625 9.55677C5.33108 9.38045 5.33108 9.09893 5.15625 8.9241L1.51279 5.28064H14.5205C18.1521 5.28064 21.1199 8.24845 21.1199 11.88C21.1199 15.4894 18.1891 18.4424 14.5886 18.4795C14.5664 18.4795 14.5427 18.4795 14.5205 18.4795H7.03946V18.7817C7.01427 18.8677 7.01427 18.958 7.03946 19.044V19.3596H14.5205C14.5338 19.3596 14.5471 19.3596 14.562 19.3596C14.5664 19.3596 14.5694 19.3596 14.5753 19.3596C14.599 19.3596 14.6197 19.3462 14.6434 19.3462C18.6988 19.2781 22 15.9502 22 11.88C22 7.80987 18.6988 4.48202 14.6434 4.41386C14.6272 4.40793 14.6079 4.40349 14.5886 4.40052C14.5649 4.40052 14.5442 4.40052 14.5205 4.40052H1.51279L5.15625 0.755589C5.29849 0.623719 5.33701 0.414802 5.25107 0.239964C5.16662 0.0651253 4.97548 -0.031184 4.78434 -6.86552e-05ZM-4.19002e-06 18.4795V19.3596H0.880114V18.4795H-4.19002e-06ZM1.76023 18.4795V19.3596H2.64035V18.4795H1.76023ZM3.52047 18.4795V19.3596H4.40059V18.4795H3.52047ZM5.28071 18.4795V19.3596H6.15934V18.4795H5.28071Z" fill="white"/>
</svg>
