<svg width="18" height="16" viewBox="0 0 18 16" fill="none" xmlns="http://www.w3.org/2000/svg">
<path d="M2.51997 0.879883C1.53138 0.879883 0.719971 1.69129 0.719971 2.67988V11.3199C0.719971 12.3085 1.53138 13.1199 2.51997 13.1199H3.99372C4.04294 13.553 4.03731 13.9538 3.92622 14.2899C3.78981 14.7033 3.53528 15.0507 3.05997 15.3361C2.92638 15.4205 2.8645 15.5822 2.90528 15.7341C2.94606 15.886 3.08247 15.9943 3.23997 15.9999C4.76716 15.9999 6.51794 15.2025 7.40247 13.1199H15.48C16.4686 13.1199 17.28 12.3085 17.28 11.3199V2.67988C17.28 1.69129 16.4686 0.879883 15.48 0.879883H2.51997ZM2.51997 1.59988H15.48C16.0762 1.59988 16.56 2.08363 16.56 2.67988V11.3199C16.56 11.9161 16.0762 12.3999 15.48 12.3999H7.19997C7.0495 12.3999 6.9145 12.4941 6.86247 12.6361C6.30278 14.1633 5.30294 14.8904 4.26372 15.1561C4.40435 14.955 4.53794 14.7427 4.61247 14.5149C4.7995 13.9468 4.78403 13.3252 4.66872 12.6924C4.63638 12.525 4.49153 12.4027 4.31997 12.3999H2.51997C1.92372 12.3999 1.43997 11.9161 1.43997 11.3199V2.67988C1.43997 2.08363 1.92372 1.59988 2.51997 1.59988ZM5.39997 5.91988C4.80794 5.91988 4.31997 6.40785 4.31997 6.99988C4.31997 7.59191 4.80794 8.07988 5.39997 8.07988C5.992 8.07988 6.47997 7.59191 6.47997 6.99988C6.47997 6.40785 5.992 5.91988 5.39997 5.91988ZM8.99997 5.91988C8.40794 5.91988 7.91997 6.40785 7.91997 6.99988C7.91997 7.59191 8.40794 8.07988 8.99997 8.07988C9.592 8.07988 10.08 7.59191 10.08 6.99988C10.08 6.40785 9.592 5.91988 8.99997 5.91988ZM12.6 5.91988C12.0079 5.91988 11.52 6.40785 11.52 6.99988C11.52 7.59191 12.0079 8.07988 12.6 8.07988C13.192 8.07988 13.68 7.59191 13.68 6.99988C13.68 6.40785 13.192 5.91988 12.6 5.91988ZM5.39997 6.63988C5.60247 6.63988 5.75997 6.79738 5.75997 6.99988C5.75997 7.20238 5.60247 7.35988 5.39997 7.35988C5.19747 7.35988 5.03997 7.20238 5.03997 6.99988C5.03997 6.79738 5.19747 6.63988 5.39997 6.63988ZM8.99997 6.63988C9.20247 6.63988 9.35997 6.79738 9.35997 6.99988C9.35997 7.20238 9.20247 7.35988 8.99997 7.35988C8.79747 7.35988 8.63997 7.20238 8.63997 6.99988C8.63997 6.79738 8.79747 6.63988 8.99997 6.63988ZM12.6 6.63988C12.8025 6.63988 12.96 6.79738 12.96 6.99988C12.96 7.20238 12.8025 7.35988 12.6 7.35988C12.3975 7.35988 12.24 7.20238 12.24 6.99988C12.24 6.79738 12.3975 6.63988 12.6 6.63988Z" fill="#AEAEAE"/>
</svg>
