<svg width="14" height="22" viewBox="0 0 14 22" fill="none" xmlns="http://www.w3.org/2000/svg">
<path d="M2.63119 0.811595L2.632 0.811619C2.99068 0.822407 3.32847 0.972916 3.5772 1.22592L12.3755 10.0242C12.9145 10.5633 12.9145 11.4367 12.3755 11.9757L3.57913 20.7721C3.2332 21.1309 2.72025 21.2742 2.23799 21.1483L2.23733 21.1481C1.75516 21.0215 1.37825 20.6446 1.25165 20.1624L1.25147 20.1618C1.12556 19.6795 1.26881 19.1666 1.6276 18.8207L9.4483 11L1.62615 3.17784C1.22149 2.78178 1.09881 2.17754 1.31904 1.65383L1.31903 1.65382L1.32025 1.65097C1.54331 1.12959 2.06242 0.795422 2.63119 0.811595Z" fill="#FF4747" stroke="#FF4747"/>
</svg>
