<svg width="16" height="15" viewBox="0 0 16 15" fill="none" xmlns="http://www.w3.org/2000/svg">
<path d="M7.91006 0.23995C7.74975 0.256825 7.59787 0.32995 7.48256 0.44245L0.282562 7.64245C-0.00431305 7.92932 -0.00431305 8.39058 0.282562 8.67745C0.569437 8.96432 1.03069 8.96432 1.31756 8.67745L8.00006 1.99495L14.6826 8.67745C14.9694 8.96432 15.4307 8.96432 15.7176 8.67745C16.0044 8.39058 16.0044 7.92932 15.7176 7.64245L8.51756 0.44245C8.35725 0.28495 8.13225 0.209012 7.91006 0.23995Z" fill="white"/>
<path d="M7.91004 6.23996C7.74973 6.25683 7.59785 6.32996 7.48254 6.44246L0.282539 13.6425C-0.00433594 13.9293 -0.00433594 14.3906 0.282539 14.6775C0.569414 14.9643 1.03066 14.9643 1.31754 14.6775L8.00004 7.99496L14.6825 14.6775C14.9694 14.9643 15.4307 14.9643 15.7175 14.6775C16.0044 14.3906 16.0044 13.9293 15.7175 13.6425L8.51754 6.44246C8.35723 6.28496 8.13223 6.20902 7.91004 6.23996Z" fill="white"/>
</svg>
